<?xml version="1.0" encoding="UTF-8" standalone="no"?>
<!DOCTYPE svg PUBLIC "-//W3C//DTD SVG 1.1//EN" "http://www.w3.org/Graphics/SVG/1.1/DTD/svg11.dtd">
<svg version="1.1" xmlns="http://www.w3.org/2000/svg" xmlns:xlink="http://www.w3.org/1999/xlink" preserveAspectRatio="xMidYMid meet" viewBox="107.50515463918194 270.75256921113544 426.9896907216362 108.74227885250224" width="422.99" height="104.74"><defs><path d="M125 313.14L515 313.14L515 336.14L125 336.14L125 313.14Z" id="b1CFekdBIM"></path><path d="M141.49 359.52L125 343.51L108.51 359.52L118.96 359.52L118.96 376.49L131.06 376.49L131.06 359.52L141.49 359.52Z" id="h1dvpOMMr4"></path><path d="M375.5 359.52L359.01 343.51L342.51 359.52L352.97 359.52L352.97 376.49L365.07 376.49L365.07 359.52L375.5 359.52Z" id="cqLs1Qyc1"></path><path d="M531.49 359.52L515 343.51L498.51 359.52L508.96 359.52L508.96 376.49L521.06 376.49L521.06 359.52L531.49 359.52Z" id="c340OtpRsG"></path><path d="M221.03 288.73L237.53 304.74L254.02 288.73L243.56 288.73L243.56 271.75L231.46 271.75L231.46 288.73L221.03 288.73Z" id="bTb6ov2XV"></path><path d="M425.31 288.73L441.8 304.74L458.3 288.73L447.84 288.73L447.84 271.75L435.74 271.75L435.74 288.73L425.31 288.73Z" id="aSqOxfWgt"></path></defs><g><g><use xlink:href="#b1CFekdBIM" opacity="1" fill="#ffffff" fill-opacity="1"></use><g><use xlink:href="#b1CFekdBIM" opacity="1" fill-opacity="0" stroke="#000000" stroke-width="5" stroke-opacity="1"></use></g></g><g><use xlink:href="#h1dvpOMMr4" opacity="1" fill="#000000" fill-opacity="1"></use></g><g><use xlink:href="#cqLs1Qyc1" opacity="1" fill="#000000" fill-opacity="1"></use></g><g><use xlink:href="#c340OtpRsG" opacity="1" fill="#000000" fill-opacity="1"></use></g><g><use xlink:href="#bTb6ov2XV" opacity="1" fill="#000000" fill-opacity="1"></use></g><g><use xlink:href="#aSqOxfWgt" opacity="1" fill="#000000" fill-opacity="1"></use></g></g></svg>