<svg xmlns="http://www.w3.org/2000/svg" xmlns:xlink="http://www.w3.org/1999/xlink" width="423" height="105" version="1" viewBox="108 271 427 109">
  <defs>
    <path id="a" d="M125 313h390v23H125v-23z"/>
    <path id="b" d="M141 360l-16-16-16 16h10v16h12v-16h10z"/>
    <path id="c" d="M376 360l-17-16-16 16h10v16h12v-16h11z"/>
    <path id="d" d="M531 360l-16-16-16 16h10v16h12v-16h10z"/>
    <path id="e" d="M221 289l17 16 16-16h-10v-17h-13v17h-10z"/>
    <path id="f" d="M425 289l17 16 16-16h-10v-17h-12v17h-11z"/>
  </defs>
  <use fill="#fff" xlink:href="#a"/>
  <use fill-opacity="0" stroke="#000" stroke-width="5" xlink:href="#a"/>
  <use xlink:href="#b"/>
  <use xlink:href="#c"/>
  <use xlink:href="#d"/>
  <use xlink:href="#e"/>
  <g>
    <use xlink:href="#f"/>
  </g>
</svg>
