<?xml version="1.0" encoding="UTF-8" standalone="no"?>
<!DOCTYPE svg PUBLIC "-//W3C//DTD SVG 1.1//EN" "http://www.w3.org/Graphics/SVG/1.1/DTD/svg11.dtd">
<svg version="1.1" xmlns="http://www.w3.org/2000/svg" xmlns:xlink="http://www.w3.org/1999/xlink" preserveAspectRatio="xMidYMid meet" viewBox="107.50515463918194 270.75256921113544 426.9896907216362 108.74227885250224" width="422.99" height="104.74"><defs><path d="M125 313.14L515 313.14L515 336.14L125 336.14L125 313.14Z" id="b1CFekdBIM"></path><path d="M141.49 359.52L125 343.51L108.51 359.52L118.96 359.52L118.96 376.49L131.06 376.49L131.06 359.52L141.49 359.52Z" id="h1dvpOMMr4"></path><path d="M336.49 359.52L320 343.51L303.51 359.52L313.96 359.52L313.96 376.49L326.06 376.49L326.06 359.52L336.49 359.52Z" id="d2vLgekQej"></path><path d="M531.49 359.52L515 343.51L498.51 359.52L508.96 359.52L508.96 376.49L521.06 376.49L521.06 359.52L531.49 359.52Z" id="c340OtpRsG"></path><path d="M190.98 288.73L207.47 304.74L223.97 288.73L213.51 288.73L213.51 271.75L201.41 271.75L201.41 288.73L190.98 288.73Z" id="a2c740kf6H"></path><path d="M157.99 288.73L174.48 304.74L190.98 288.73L180.52 288.73L180.52 271.75L168.42 271.75L168.42 288.73L157.99 288.73Z" id="ftoEAXAw"></path><path d="M125 288.73L141.49 304.74L157.99 288.73L147.53 288.73L147.53 271.75L135.43 271.75L135.43 288.73L125 288.73Z" id="aqIXMgEdT"></path><path d="M287.01 288.73L303.51 304.74L320 288.73L309.54 288.73L309.54 271.75L297.44 271.75L297.44 288.73L287.01 288.73Z" id="ccfHokx90"></path><path d="M254.02 288.73L270.52 304.74L287.01 288.73L276.55 288.73L276.55 271.75L264.45 271.75L264.45 288.73L254.02 288.73Z" id="a3XcjVV7Xz"></path><path d="M221.03 288.73L237.53 304.74L254.02 288.73L243.56 288.73L243.56 271.75L231.46 271.75L231.46 288.73L221.03 288.73Z" id="bTb6ov2XV"></path><path d="M385.98 288.73L402.47 304.74L418.97 288.73L408.51 288.73L408.51 271.75L396.41 271.75L396.41 288.73L385.98 288.73Z" id="eRjsGREcO"></path><path d="M352.99 288.73L369.48 304.74L385.98 288.73L375.52 288.73L375.52 271.75L363.42 271.75L363.42 288.73L352.99 288.73Z" id="a4G4dO0Ay"></path><path d="M320 288.73L336.49 304.74L352.99 288.73L342.53 288.73L342.53 271.75L330.43 271.75L330.43 288.73L320 288.73Z" id="c1em9433Sb"></path><path d="M482.01 288.73L498.51 304.74L515 288.73L504.54 288.73L504.54 271.75L492.44 271.75L492.44 288.73L482.01 288.73Z" id="b4vA2Rb2Cv"></path><path d="M449.02 288.73L465.52 304.74L482.01 288.73L471.55 288.73L471.55 271.75L459.45 271.75L459.45 288.73L449.02 288.73Z" id="adMhgiyxi"></path><path d="M416.03 288.73L432.53 304.74L449.02 288.73L438.56 288.73L438.56 271.75L426.46 271.75L426.46 288.73L416.03 288.73Z" id="aoBCbqQVM"></path></defs><g><g><use xlink:href="#b1CFekdBIM" opacity="1" fill="#ffffff" fill-opacity="1"></use><g><use xlink:href="#b1CFekdBIM" opacity="1" fill-opacity="0" stroke="#000000" stroke-width="5" stroke-opacity="1"></use></g></g><g><use xlink:href="#h1dvpOMMr4" opacity="1" fill="#000000" fill-opacity="1"></use></g><g><use xlink:href="#d2vLgekQej" opacity="1" fill="#000000" fill-opacity="1"></use></g><g><use xlink:href="#c340OtpRsG" opacity="1" fill="#000000" fill-opacity="1"></use></g><g><use xlink:href="#a2c740kf6H" opacity="1" fill="#000000" fill-opacity="1"></use></g><g><use xlink:href="#ftoEAXAw" opacity="1" fill="#000000" fill-opacity="1"></use></g><g><use xlink:href="#aqIXMgEdT" opacity="1" fill="#000000" fill-opacity="1"></use></g><g><use xlink:href="#ccfHokx90" opacity="1" fill="#000000" fill-opacity="1"></use></g><g><use xlink:href="#a3XcjVV7Xz" opacity="1" fill="#000000" fill-opacity="1"></use></g><g><use xlink:href="#bTb6ov2XV" opacity="1" fill="#000000" fill-opacity="1"></use></g><g><use xlink:href="#eRjsGREcO" opacity="1" fill="#000000" fill-opacity="1"></use></g><g><use xlink:href="#a4G4dO0Ay" opacity="1" fill="#000000" fill-opacity="1"></use></g><g><use xlink:href="#c1em9433Sb" opacity="1" fill="#000000" fill-opacity="1"></use></g><g><use xlink:href="#b4vA2Rb2Cv" opacity="1" fill="#000000" fill-opacity="1"></use></g><g><use xlink:href="#adMhgiyxi" opacity="1" fill="#000000" fill-opacity="1"></use></g><g><use xlink:href="#aoBCbqQVM" opacity="1" fill="#000000" fill-opacity="1"></use></g></g></svg>