<?xml version="1.0" encoding="UTF-8" standalone="no"?>
<!DOCTYPE svg PUBLIC "-//W3C//DTD SVG 1.1//EN" "http://www.w3.org/Graphics/SVG/1.1/DTD/svg11.dtd">
<svg version="1.1" xmlns="http://www.w3.org/2000/svg" xmlns:xlink="http://www.w3.org/1999/xlink" preserveAspectRatio="xMidYMid meet" viewBox="107.50515463918194 270.75256921113544 426.9896907216362 108.74227885250224" width="422.99" height="104.74"><defs><path d="M125 313.14L515 313.14L515 336.14L125 336.14L125 313.14Z" id="f3JUX94Ns1"></path><path d="M141.49 359.52L125 343.51L108.51 359.52L118.96 359.52L118.96 376.49L131.06 376.49L131.06 359.52L141.49 359.52Z" id="cbpBcmBhe"></path><path d="M336.49 359.52L320 343.51L303.51 359.52L313.96 359.52L313.96 376.49L326.06 376.49L326.06 359.52L336.49 359.52Z" id="c34TGs5lxZ"></path><path d="M531.49 359.52L515 343.51L498.51 359.52L508.96 359.52L508.96 376.49L521.06 376.49L521.06 359.52L531.49 359.52Z" id="f1IdcPlpk"></path><path d="M190.98 288.73L207.47 304.74L223.97 288.73L213.51 288.73L213.51 271.75L201.41 271.75L201.41 288.73L190.98 288.73Z" id="aZGvUs8Si"></path><path d="M157.99 288.73L174.48 304.74L190.98 288.73L180.52 288.73L180.52 271.75L168.42 271.75L168.42 288.73L157.99 288.73Z" id="a8IK6qYLH"></path><path d="M125 288.73L141.49 304.74L157.99 288.73L147.53 288.73L147.53 271.75L135.43 271.75L135.43 288.73L125 288.73Z" id="d18fbT7LKP"></path><path d="M287.01 288.73L303.51 304.74L320 288.73L309.54 288.73L309.54 271.75L297.44 271.75L297.44 288.73L287.01 288.73Z" id="a4e9I7Fpd"></path><path d="M254.02 288.73L270.52 304.74L287.01 288.73L276.55 288.73L276.55 271.75L264.45 271.75L264.45 288.73L254.02 288.73Z" id="a5fCutfPiL"></path><path d="M221.03 288.73L237.53 304.74L254.02 288.73L243.56 288.73L243.56 271.75L231.46 271.75L231.46 288.73L221.03 288.73Z" id="d13anIdbq2"></path></defs><g><g><use xlink:href="#f3JUX94Ns1" opacity="1" fill="#ffffff" fill-opacity="1"></use><g><use xlink:href="#f3JUX94Ns1" opacity="1" fill-opacity="0" stroke="#000000" stroke-width="5" stroke-opacity="1"></use></g></g><g><use xlink:href="#cbpBcmBhe" opacity="1" fill="#000000" fill-opacity="1"></use></g><g><use xlink:href="#c34TGs5lxZ" opacity="1" fill="#000000" fill-opacity="1"></use></g><g><use xlink:href="#f1IdcPlpk" opacity="1" fill="#000000" fill-opacity="1"></use></g><g><use xlink:href="#aZGvUs8Si" opacity="1" fill="#000000" fill-opacity="1"></use></g><g><use xlink:href="#a8IK6qYLH" opacity="1" fill="#000000" fill-opacity="1"></use></g><g><use xlink:href="#d18fbT7LKP" opacity="1" fill="#000000" fill-opacity="1"></use></g><g><use xlink:href="#a4e9I7Fpd" opacity="1" fill="#000000" fill-opacity="1"></use></g><g><use xlink:href="#a5fCutfPiL" opacity="1" fill="#000000" fill-opacity="1"></use></g><g><use xlink:href="#d13anIdbq2" opacity="1" fill="#000000" fill-opacity="1"></use></g></g></svg>